<svg xmlns="http://www.w3.org/2000/svg" viewBox="0 0 565.09 152.65"><defs><style>.cls-1,.cls-2,.cls-3{fill:none;stroke-linecap:round;stroke-linejoin:round;}.cls-1{stroke:#74fee3;stroke-width:10.51px;}.cls-2{stroke:#ec008c;stroke-width:8px;}.cls-3{stroke:#d1d3d4;stroke-width:5.25px;}</style></defs><title>accessLogo</title><g id="Layer_2" data-name="Layer 2"><g id="Layer_1-2" data-name="Layer 1"><g id="_Group_" data-name="&lt;Group&gt;"><line id="_Path_" data-name="&lt;Path&gt;" class="cls-1" x1="34.49" y1="100.83" x2="71.19" y2="100.83"/><polyline id="_Path_2" data-name="&lt;Path&gt;" class="cls-1" points="85.22 147.39 42.24 5.25 5.25 147.39"/><polyline id="_Path_3" data-name="&lt;Path&gt;" class="cls-1" points="302.82 29.58 295.37 5.32 262.6 5.32 305.3 147.39 277.3 147.39"/><polyline id="_Path_4" data-name="&lt;Path&gt;" class="cls-1" points="355.89 42.39 343.9 5.32 319.13 5.32 361.83 147.39 332.14 147.39 309.35 76.48"/><line id="_Path_5" data-name="&lt;Path&gt;" class="cls-2" x1="388.64" y1="147.43" x2="362.55" y2="66.83"/><line id="_Path_6" data-name="&lt;Path&gt;" class="cls-2" x1="412.76" y1="147.43" x2="386.67" y2="66.83"/><line id="_Path_7" data-name="&lt;Path&gt;" class="cls-2" x1="436.88" y1="147.43" x2="410.79" y2="66.83"/><line id="_Path_8" data-name="&lt;Path&gt;" class="cls-3" x1="459.62" y1="147.43" x2="433.53" y2="66.83"/><line id="_Path_9" data-name="&lt;Path&gt;" class="cls-3" x1="481" y1="147.43" x2="454.91" y2="66.83"/><polyline id="_Path_10" data-name="&lt;Path&gt;" class="cls-3" points="500.84 147.43 474.75 66.83 526.8 147.43 500.7 66.83"/><line id="_Path_11" data-name="&lt;Path&gt;" class="cls-1" x1="212.51" y1="60.75" x2="251.53" y2="60.75"/><polyline id="_Path_12" data-name="&lt;Path&gt;" class="cls-1" points="172.32 5.32 136.47 5.32 178.92 147.39 219.77 147.39"/><polyline id="_Path_13" data-name="&lt;Path&gt;" class="cls-1" points="114.28 5.32 78.44 5.32 120.89 147.39 161.74 147.39"/><line id="_Path_14" data-name="&lt;Path&gt;" class="cls-1" x1="277.3" y1="147.39" x2="265.12" y2="108.83"/><polyline id="_Path_15" data-name="&lt;Path&gt;" class="cls-1" points="241.14 5.56 194.7 5.56 237.15 147.39 259.65 147.39"/><polyline id="_Path_16" data-name="&lt;Path&gt;" class="cls-3" points="540.46 79.48 536.53 66.83 515.75 66.83 541.84 147.43 562.46 147.43 553.06 118.39 545.86 118.39"/></g></g></g></svg>