<svg id="Layer_1" data-name="Layer 1" xmlns="http://www.w3.org/2000/svg" viewBox="0 0 60 60"><defs><style>.cls-1{fill:#74fee3;}.cls-2{fill:none;stroke:#74fee3;stroke-miterlimit:10;stroke-width:1.11px;}</style></defs><title>google</title><g id="_Group_" data-name="&lt;Group&gt;"><g id="_Group_2" data-name="&lt;Group&gt;"><path id="_Path_" data-name="&lt;Path&gt;" class="cls-1" d="M25.77,39.84h-.53a8.66,8.66,0,0,1-4.72-1.67,8.78,8.78,0,0,1-3.46-5.29,8.36,8.36,0,0,1-.19-2.38,8.86,8.86,0,0,1,6.7-8.08A7,7,0,0,1,25,22.19h.16l.65,0a8.43,8.43,0,0,1,5.55,2.08l-2.22,2.22a5.13,5.13,0,0,0-2.63-1.18,5.66,5.66,0,0,0-6.38,4.46A5.61,5.61,0,0,0,20,31.49a5.81,5.81,0,0,0,4,5,5.56,5.56,0,0,0,1.7.26h.41A5.5,5.5,0,0,0,29,35.86a4.41,4.41,0,0,0,1.94-3v-.31H26V29.48h8a9.39,9.39,0,0,1-1.56,7.22,7.71,7.71,0,0,1-4.33,2.85,9.43,9.43,0,0,1-2.37.3Z"/><polygon id="_Path_2" data-name="&lt;Path&gt;" class="cls-1" points="40.08 34.66 40.08 31.47 36.89 31.47 36.89 29.6 40.08 29.6 40.08 26.4 41.96 26.4 41.96 29.6 45.15 29.6 45.15 31.47 41.96 31.47 41.96 34.66 40.08 34.66"/></g><circle id="_Path_3" data-name="&lt;Path&gt;" class="cls-2" cx="30" cy="30" r="26.31"/></g></svg>